<svg id="navbar-brand" xmlns="http://www.w3.org/2000/svg" xmlns:xlink="http://www.w3.org/1999/xlink" width="143.817" height="40.004" viewBox="0 0 143.817 40.004">
  <defs>
    <linearGradient id="linear-gradient" x1="0.795" y1="0.67" x2="-0.122" y2="1.062" gradientUnits="objectBoundingBox">
      <stop offset="0" stop-color="#fad961"/>
      <stop offset="1" stop-color="#f76b1c"/>
    </linearGradient>
    <clipPath id="clip-path">
      <path id="Mask" d="M34.578,19.406,31.462,1.382A1.665,1.665,0,0,0,29.821,0H4.44A1.665,1.665,0,0,0,2.795,1.412L.02,19.436a1.665,1.665,0,0,0,1.646,1.918H12.71a.777.777,0,0,0,.777-.777V14.956a.777.777,0,0,1,.777-.777h5.695a.777.777,0,0,1,.777.777v5.621a.777.777,0,0,0,.777.777H32.937a1.665,1.665,0,0,0,1.641-1.949" transform="translate(0)" fill="url(#linear-gradient)"/>
    </clipPath>
    <linearGradient id="linear-gradient-4" x1="0.5" y1="0" x2="0.542" y2="1.235" xlink:href="#linear-gradient"/>
    <clipPath id="clip-path-2">
      <path id="Mask-2" data-name="Mask" d="M24.334,0h-7.68a.777.777,0,0,0-.777.777V4.644a.777.777,0,0,1-.777.777H11.177a.777.777,0,0,1-.777-.777V.777A.777.777,0,0,0,9.623,0H1.666A1.665,1.665,0,0,0,.025,1.949l2.213,12.8a1.665,1.665,0,0,0,1.641,1.381H22.363a1.665,1.665,0,0,0,1.646-1.412l1.971-12.8A1.665,1.665,0,0,0,24.334,0" transform="translate(0 0)" fill="url(#linear-gradient)"/>
    </clipPath>
  </defs>
  <g id="Logotype" transform="translate(44.182 10.213)">
    <path id="Fill_1" data-name="Fill 1" d="M14.831,14.243c0-.565-.244-.785-.871-.785H8.165c-1.3,0-1.925-.47-1.925-1.435V6.685c0-1,.63-1.488,1.925-1.488h5.795c.627,0,.871-.22.871-.785V.785c0-.565-.244-.785-.871-.785H6.925C4.519,0,2.8.421,1.664,1.287A4.632,4.632,0,0,0,0,5.252v8.22C0,17.037,2.2,18.7,6.925,18.7h7.034c.627,0,.871-.22.871-.785Z" transform="translate(0 0)" fill="#1b2e41"/>
    <path id="Fill_4" data-name="Fill 4" d="M12.23,18.7H16.7c.627,0,.871-.22.871-.785V.785C17.57.22,17.325,0,16.7,0H12.23c-.627,0-.871.22-.871.785v5.9H6.211V.785C6.211.22,5.967,0,5.34,0H.871C.244,0,0,.22,0,.785V17.912c0,.565.244.785.871.785H5.34c.627,0,.871-.22.871-.785V11.878h5.147v6.034c0,.565.244.785.871.785" transform="translate(18.428 0)" fill="#1b2e41"/>
    <path id="Fill_7" data-name="Fill 7" d="M5.4,0H.871C.244,0,0,.22,0,.785V13.677a4.417,4.417,0,0,0,1.706,3.867c1.4,1.043,3.7,1.549,7.036,1.549s5.635-.507,7.036-1.549a4.417,4.417,0,0,0,1.706-3.867V.785c0-.565-.244-.785-.871-.785H12.23c-.643,0-.871.205-.871.785V12.36c0,1.48-1.392,1.791-2.559,1.791a3.09,3.09,0,0,1-2.048-.537,1.438,1.438,0,0,1-.483-1.158V.785C6.269.22,6.024,0,5.4,0" transform="translate(40.075 0)" fill="#1b2e41"/>
    <path id="Fill_9" data-name="Fill 9" d="M16.722,11.376A7.093,7.093,0,0,0,17.6,7.763V.785C17.6.205,17.37,0,16.727,0H12.2c-.627,0-.871.22-.871.785V8.053a3.188,3.188,0,0,1-.241,1.141L9.734,12.921c-.118.353-.272.559-.7.559H8.713c-.432,0-.586-.206-.706-.563l-1.353-3.7A3.185,3.185,0,0,1,6.413,8.08V.785C6.413.419,6.3,0,5.455,0H.871C.244,0,0,.22,0,.785V7.763a7.092,7.092,0,0,0,.877,3.614l2.857,6.549a1.2,1.2,0,0,0,1.318.772h7.5a1.2,1.2,0,0,0,1.318-.772Z" transform="translate(61.389 0)" fill="#1b2e41"/>
    <path id="Fill_11" data-name="Fill 11" d="M16.727,18.7H12.374c-.795,0-.958-.314-.958-.785V14.045H5.98v3.867c0,.565-.244.785-.871.785H.871c-.627,0-.871-.22-.871-.785V10.934A11.362,11.362,0,0,1,1.111,6.77L3.622.765C3.825.229,4.218,0,4.936,0h7.755a1.19,1.19,0,0,1,1.288.77l2.508,6A11.359,11.359,0,0,1,17.6,10.934v6.978C17.6,18.477,17.354,18.7,16.727,18.7ZM8.338,4.768a.768.768,0,0,0-.7.547L6.2,9.568h4.99L9.764,5.331l-.006-.016a.767.767,0,0,0-.7-.547Z" transform="translate(82.037 0)" fill="#1b2e41"/>
  </g>
  <g id="Icon" transform="translate(0)">
    <g id="bottom" transform="translate(0 18.65)">
      <path id="Mask-3" data-name="Mask" d="M34.578,19.406,31.462,1.382A1.665,1.665,0,0,0,29.821,0H4.44A1.665,1.665,0,0,0,2.795,1.412L.02,19.436a1.665,1.665,0,0,0,1.646,1.918H12.71a.777.777,0,0,0,.777-.777V14.956a.777.777,0,0,1,.777-.777h5.695a.777.777,0,0,1,.777.777v5.621a.777.777,0,0,0,.777.777H32.937a1.665,1.665,0,0,0,1.641-1.949" transform="translate(0)" fill="url(#linear-gradient)"/>
      <g id="bottom-2" data-name="bottom" clip-path="url(#clip-path)">
        <path id="Fill_3" data-name="Fill 3" d="M22.081,0a1.2,1.2,0,0,1,1.184,1l2.489,16.209c.127.735-25.867.728-25.754,0L2.573,1.019A1.2,1.2,0,0,1,3.761,0Z" transform="translate(4.329 4.44)" opacity="0.696" fill="url(#linear-gradient-4)"/>
      </g>
    </g>
    <g id="top" transform="translate(4.329)">
      <path id="Mask-4" data-name="Mask" d="M24.334,0h-7.68a.777.777,0,0,0-.777.777V4.644a.777.777,0,0,1-.777.777H11.177a.777.777,0,0,1-.777-.777V.777A.777.777,0,0,0,9.623,0H1.666A1.665,1.665,0,0,0,.025,1.949l2.213,12.8a1.665,1.665,0,0,0,1.641,1.381H22.363a1.665,1.665,0,0,0,1.646-1.412l1.971-12.8A1.665,1.665,0,0,0,24.334,0" transform="translate(0 0)" fill="url(#linear-gradient)"/>
      <g id="top-2" data-name="top" transform="translate(0)" clip-path="url(#clip-path-2)">
        <path id="Fill_1-2" data-name="Fill 1" d="M3.027,13.432a1.107,1.107,0,0,1-1.093-.913L.017,1.287A1.1,1.1,0,0,1,1.109,0L17,.02a1.1,1.1,0,0,1,1.1,1.267L16.435,12.5a1.106,1.106,0,0,1-1.1.933Z" transform="translate(3.997 -1.554)" fill="url(#linear-gradient-4)"/>
      </g>
    </g>
  </g>
</svg>
